<svg width="54" height="55" viewBox="0 0 54 55" fill="none" xmlns="http://www.w3.org/2000/svg">
<path d="M15.75 14.4355C15.75 13.1929 16.7574 12.1855 18 12.1855H36C37.2427 12.1855 38.25 13.1929 38.25 14.4355V18.9355C38.25 20.1782 37.2427 21.1855 36 21.1855H18C16.7574 21.1855 15.75 20.1782 15.75 18.9355V14.4355ZM19.125 17.8105H34.875V15.5605H19.125V17.8105ZM9 11.0605C9 7.95395 11.5184 5.43555 14.625 5.43555H40.5C43.6066 5.43555 46.125 7.95395 46.125 11.0605V43.123C46.125 44.055 45.3694 44.8105 44.4375 44.8105H12.375C12.375 46.0532 13.3824 47.0605 14.625 47.0605H44.4375C45.3694 47.0605 46.125 47.8161 46.125 48.748C46.125 49.68 45.3694 50.4355 44.4375 50.4355H14.625C11.5184 50.4355 9 47.9171 9 44.8105V11.0605ZM12.375 41.4355H42.75V11.0605C42.75 9.81792 41.7427 8.81055 40.5 8.81055H14.625C13.3824 8.81055 12.375 9.81792 12.375 11.0605V41.4355Z" fill="white"/>
</svg>
